<?xml version="1.0" encoding="UTF-8"?>
<svg width="221px" height="57px" viewBox="0 0 221 57" version="1.1" xmlns="http://www.w3.org/2000/svg" xmlns:xlink="http://www.w3.org/1999/xlink">
    <!-- Generator: Sketch 50.2 (55047) - http://www.bohemiancoding.com/sketch -->
    <title>logo-skb-kontur-rgb</title>
    <desc>Created with Sketch.</desc>
    <defs></defs>
    <g id="logo-skb-kontur-rgb" stroke="none" stroke-width="1" fill="none" fill-rule="evenodd">
        <path d="M27.7538176,10.4288141 L55.8078176,10.4288141 L55.8078176,38.4808141 C55.8078176,42.7228141 52.3368176,46.1938141 48.0948176,46.1938141 L33.5298176,46.1938141 C32.8208176,46.1938141 32.1238176,46.1368141 31.4438176,46.0318141 L49.6588176,22.9368141 L43.3168176,16.5518141 L37.4578176,16.5518141 L43.5578176,22.7848141 L24.4658176,42.6728141 C24.1198176,42.3578141 23.7918176,42.0258141 23.4818176,41.6768141 L42.1728176,22.8028141 L35.2218176,15.6808141 L50.5338176,15.6808141 L50.5338176,31.0458141 L47.1358176,27.5858141 L44.3448176,31.1788141 L53.2408176,40.0748141 L53.2408176,12.9818141 L26.1938176,12.9818141 L36.1178176,22.9368141 L20.1248176,34.1918141 C20.0688176,33.7018141 20.0418176,33.2078141 20.0418176,32.7038141 L20.0418176,18.1408141 C20.0418176,13.8988141 23.5118176,10.4288141 27.7538176,10.4288141" id="Fill-1" fill="#FFFFFF"></path>
        <polygon id="Fill-3" fill="#FFFFFF" points="130.698118 19.3380141 126.514118 19.3450141 120.985118 27.1400141 120.252118 27.1400141 120.252118 19.3450141 116.673118 19.3450141 116.673118 38.2620141 120.252118 38.2620141 120.252118 29.6650141 121.186118 29.6650141 126.571118 38.2620141 130.991118 38.2620141 124.136118 28.1750141"></polygon>
        <path d="M107.287918,28.1876141 C106.082918,27.2376141 104.373918,26.8296141 102.502918,26.8266141 C101.519918,26.8246141 100.541918,26.9116141 99.5649176,27.0196141 L99.5649176,22.2886141 L103.223918,22.2886141 C104.687918,22.2886141 106.295918,22.4376141 107.758918,22.7336141 L107.758918,19.3436141 L95.9859176,19.3436141 L95.9859176,38.2626141 C97.1379176,38.2626141 98.2819176,38.3096141 99.4229176,38.3526141 C100.453918,38.3936141 101.478918,38.4306141 102.502918,38.4306141 C104.232918,38.4306141 105.728918,37.9906141 106.855918,37.1456141 C108.217918,36.1236141 109.035918,34.5086141 109.064918,32.3576141 C109.092918,30.4246141 108.406918,29.0716141 107.287918,28.1876141 M104.730918,34.7856141 C104.232918,35.2526141 103.494918,35.4716141 102.496918,35.4616141 C101.543918,35.4536141 100.708918,35.4496141 99.5649176,35.3796141 L99.5649176,29.9536141 C100.586918,29.8576141 101.521918,29.8056141 102.502918,29.8246141 C103.564918,29.8446141 104.366918,30.0596141 104.879918,30.5376141 C105.310918,30.9396141 105.535918,31.5316141 105.534918,32.3506141 C105.533918,33.4756141 105.273918,34.2776141 104.730918,34.7856141" id="Fill-5" fill="#FFFFFF"></path>
        <polygon id="Fill-7" fill="#FFFFFF" points="94.5692176 19.3448141 90.3872176 19.3498141 84.8582176 27.1458141 84.1242176 27.1458141 84.1242176 19.3498141 80.5462176 19.3498141 80.5462176 38.2678141 84.1242176 38.2678141 84.1242176 29.6708141 85.0572176 29.6708141 90.4442176 38.2678141 94.8632176 38.2678141 88.0072176 28.1808141"></polygon>
        <path d="M70.8348176,33.8424141 C69.8468176,32.6314141 69.3798176,30.9244141 69.3548176,29.1564141 C69.3208176,27.0284141 69.8268176,24.8314141 71.1588176,23.4674141 C71.9758176,22.6294141 73.1048176,22.1064141 74.6078176,22.1004141 C75.7978176,22.0964141 76.9798176,22.5224141 77.9068176,23.3834141 L78.6458176,19.8874141 C77.3348176,19.3164141 75.8898176,19.0294141 74.4638176,19.0294141 C72.2328176,19.0294141 70.3368176,19.7524141 68.8918176,21.0374141 C66.9108176,22.7964141 65.7738176,25.6084141 65.7738176,29.0594141 C65.7738176,32.3074141 66.6748176,34.7644141 68.2098176,36.3674141 C69.6378176,37.8604141 71.6158176,38.6134141 73.9268176,38.5744141 C75.9528176,38.5744141 77.5478176,38.2384141 78.7258176,37.6454141 L78.7258176,34.4424141 C77.4268176,35.1354141 76.0008176,35.6154141 74.6078176,35.5924141 C72.9288176,35.5654141 71.6888176,34.8874141 70.8348176,33.8424141" id="Fill-9" fill="#FFFFFF"></path>
        <polygon id="Fill-11" fill="#FFFFFF" points="154.200118 29.1241141 148.491118 29.1241141 148.491118 23.3981141 145.009118 23.3981141 145.009118 38.2621141 148.491118 38.2621141 148.491118 31.9691141 154.200118 31.9691141 154.200118 38.2621141 157.680118 38.2621141 157.680118 23.3981141 154.200118 23.3981141"></polygon>
        <path d="M136.886618,23.0480141 C134.426618,23.0480141 132.587618,24.1380141 131.436618,25.8170141 C130.496618,27.1870141 130.014618,28.9470141 130.026618,30.8290141 C130.037618,32.8500141 130.463618,34.7230141 131.436618,36.1240141 C132.490618,37.6450141 134.190618,38.6120141 136.701618,38.6120141 C139.260618,38.6120141 141.149618,37.4320141 142.287618,35.6370141 C143.137618,34.2990141 143.573618,32.6180141 143.562618,30.8290141 C143.549618,28.7280141 143.088618,26.7850141 142.032618,25.3680141 C140.970618,23.9440141 139.305618,23.0480141 136.886618,23.0480141 M139.498618,33.9560141 C138.992618,35.0240141 138.139618,35.8350141 136.793618,35.8350141 C135.606618,35.8350141 134.803618,35.2020141 134.283618,34.3190141 C133.680618,33.2980141 133.457618,31.9380141 133.457618,30.8290141 C133.457618,29.7800141 133.657618,28.5050141 134.192618,27.5030141 C134.705618,26.5350141 135.533618,25.8250141 136.793618,25.8250141 C138.039618,25.8250141 138.864618,26.5210141 139.380618,27.4720141 C139.926618,28.4780141 140.130618,29.7700141 140.130618,30.8290141 C140.130618,31.8110141 139.955618,32.9890141 139.498618,33.9560141" id="Fill-13" fill="#FFFFFF"></path>
        <path d="M179.766518,34.6178141 L176.401518,23.4118141 L172.537518,23.4118141 L177.875518,39.2058141 C177.590518,40.3428141 176.623518,41.2758141 175.250518,41.2738141 C174.745518,41.2738141 174.348518,41.1508141 173.893518,40.9358141 L173.289518,43.7998141 C173.916518,44.1098141 174.620518,44.3168141 175.366518,44.3108141 C176.953518,44.3018141 178.190518,43.5828141 179.176518,42.5128141 C180.246518,41.3518141 181.024518,39.7818141 181.637518,38.2628141 C183.344518,34.0438141 185.058518,28.7368141 186.602518,23.3988141 L182.936518,23.3988141 L179.766518,34.6178141 Z" id="Fill-15" fill="#FFFFFF"></path>
        <path d="M199.249918,25.0733141 C198.408918,23.8413141 197.076918,23.0473141 195.049918,23.0473141 C193.357918,23.0473141 191.686918,23.7173141 190.650918,25.0893141 L190.295918,23.3983141 L187.742918,23.3983141 L187.742918,43.9833141 L191.223918,43.9833141 L191.223918,38.2623141 C191.918918,38.5103141 192.713918,38.6193141 193.447918,38.6153141 C195.693918,38.6043141 197.342918,37.8933141 198.480918,36.6943141 C199.934918,35.1623141 200.555918,32.8323141 200.518918,30.1393141 C200.492918,28.2333141 200.154918,26.3983141 199.249918,25.0733141 M196.266918,34.2933141 C195.773918,35.0533141 194.982918,35.5653141 193.719918,35.5883141 C192.881918,35.6043141 191.934918,35.5023141 191.223918,35.0283141 L191.223918,27.7713141 C192.053918,26.6623141 193.057918,26.0343141 194.469918,26.0403141 C195.423918,26.0443141 196.048918,26.5773141 196.443918,27.3083141 C196.900918,28.1523141 197.053918,29.2623141 197.057918,30.1393141 C197.062918,31.5653141 196.978918,33.1903141 196.266918,34.2933141" id="Fill-17" fill="#FFFFFF"></path>
        <path d="M159.183518,26.5440141 C160.426518,26.2650141 161.830518,26.1690141 163.023518,26.1690141 L163.750518,26.1690141 L163.750518,38.2620141 L167.098518,38.2620141 L167.100518,26.1630141 L167.829518,26.1630141 C169.021518,26.1630141 170.424518,26.2610141 171.668518,26.5390141 L171.668518,23.3960141 L159.183518,23.3980141 L159.183518,26.5440141 Z" id="Fill-19" fill="#FFFFFF"></path>
    </g>
</svg>
