<?xml version="1.0" encoding="UTF-8"?>
<svg width="118px" height="31px" viewBox="0 0 118 31" version="1.1" xmlns="http://www.w3.org/2000/svg" xmlns:xlink="http://www.w3.org/1999/xlink">
    <!-- Generator: Sketch 50.2 (55047) - http://www.bohemiancoding.com/sketch -->
    <title>logo-extern-white</title>
    <desc>Created with Sketch.</desc>
    <defs></defs>
    <g id="logo-extern-white" stroke="none" stroke-width="1" fill="none" fill-rule="evenodd">
        <polygon id="Fill-1118" fill="#FFFFFF" points="24.6123 18.3578 23.4033 18.3578 21.0283 15.7738 21.0073 15.7738 21.0073 18.3578 20.1453 18.3578 20.1453 12.9838 21.0073 12.9838 21.0073 15.4448 21.0283 15.4448 23.2893 12.9838 24.4173 12.9838 21.9233 15.5748"></polygon>
        <polygon id="Fill-1120" fill="#FFFFFF" points="42.293 18.3578 41.43 18.3578 41.43 15.9148 38.689 15.9148 38.689 18.3578 37.826 18.3578 37.826 12.9838 38.689 12.9838 38.689 15.1868 41.43 15.1868 41.43 12.9838 42.293 12.9838"></polygon>
        <polygon id="Fill-1122" fill="#FFFFFF" points="47.4146 13.7171 45.7996 13.7171 45.7996 18.3581 44.9396 18.3581 44.9396 13.7171 43.3206 13.7171 43.3206 12.9841 47.4146 12.9841"></polygon>
        <path d="M53.1685,12.9838 L50.6955,19.2178 C50.2545,20.3308 49.6335,20.8868 48.8335,20.8868 C48.6125,20.8868 48.4215,20.8678 48.2745,20.8208 L48.2745,20.0908 C48.4585,20.1548 48.6295,20.1428 48.7825,20.1428 C49.2175,20.1428 49.5415,19.8868 49.7605,19.3658 L50.1895,18.3458 L48.0885,12.9838 L49.0435,12.9838 L50.4995,17.1158 C50.5195,17.1708 50.5545,17.3078 50.6095,17.5258 L50.6405,17.5258 C50.6595,17.4438 50.6955,17.3098 50.7475,17.1298 L52.2745,12.9838 L53.1685,12.9838 Z" id="Fill-1124" fill="#FFFFFF"></path>
        <path d="M54.9561,15.4105 L54.9561,16.1615 C54.9561,16.6055 55.1011,16.9835 55.3891,17.2915 C55.6791,17.6035 56.0451,17.7625 56.4911,17.7625 C57.0131,17.7625 57.4201,17.5585 57.7161,17.1585 C58.0121,16.7605 58.1601,16.2065 58.1601,15.4945 C58.1601,14.8975 58.0211,14.4295 57.7451,14.0915 C57.4691,13.7515 57.0921,13.5815 56.6211,13.5815 C56.1201,13.5815 55.7171,13.7555 55.4131,14.1055 C55.1081,14.4515 54.9561,14.8885 54.9561,15.4105 M54.9771,17.5785 L54.9561,17.5785 L54.9561,20.8325 L54.0941,20.8325 L54.0941,12.9835 L54.9561,12.9835 L54.9561,13.9275 L54.9771,13.9275 C55.4011,13.2135 56.0201,12.8595 56.8371,12.8595 C57.5271,12.8595 58.0711,13.0995 58.4621,13.5795 C58.8491,14.0615 59.0421,14.7035 59.0421,15.5105 C59.0421,16.4095 58.8251,17.1295 58.3851,17.6725 C57.9471,18.2115 57.3481,18.4835 56.5871,18.4835 C55.8931,18.4835 55.3551,18.1835 54.9771,17.5785" id="Fill-1126" fill="#FFFFFF"></path>
        <path d="M30.4292,10.2943 C28.8032,10.2943 27.4132,11.3123 26.8622,12.7473 C25.6562,13.1993 24.7962,14.3653 24.7962,15.7243 C24.7962,17.4823 26.2262,18.9103 27.9842,18.9103 L33.2242,18.9103 C35.1942,18.9103 36.7982,17.3103 36.7982,15.3423 C36.7982,13.4533 35.3182,11.9043 33.4572,11.7823 C32.7522,10.8593 31.6512,10.2943 30.4292,10.2943 M30.4292,11.1543 C31.3602,11.1543 32.2142,11.5733 32.7722,12.3053 L33.0112,12.6133 L33.4002,12.6423 C34.8232,12.7313 35.9372,13.9173 35.9372,15.3423 C35.9372,16.8343 34.7212,18.0533 33.2242,18.0533 L27.9842,18.0533 C26.7022,18.0533 25.6572,17.0073 25.6572,15.7243 C25.6572,14.7633 26.2652,13.8923 27.1652,13.5503 L27.5282,13.4143 L27.6682,13.0493 C28.1032,11.9163 29.2122,11.1543 30.4292,11.1543" id="Fill-1128" fill="#FFFFFF"></path>
        <path d="M60.5415,18.3998 C60.3795,18.3998 60.2415,18.3418 60.1265,18.2248 C60.0135,18.1108 59.9565,17.9688 59.9565,17.8108 C59.9565,17.6478 60.0135,17.5088 60.1265,17.3908 C60.2415,17.2728 60.3795,17.2148 60.5415,17.2148 C60.7075,17.2148 60.8465,17.2728 60.9625,17.3908 C61.0785,17.5088 61.1365,17.6478 61.1365,17.8108 C61.1365,17.9688 61.0785,18.1108 60.9625,18.2248 C60.8465,18.3418 60.7075,18.3998 60.5415,18.3998" id="Fill-1130" fill="#FFFFFF"></path>
        <path d="M62.2671,18.1058 L62.2671,17.2908 C62.6741,17.5888 63.1421,17.7428 63.6681,17.7428 C64.1801,17.7428 64.5901,17.5848 64.9051,17.2698 C65.2181,16.9578 65.3901,16.5318 65.4181,15.9938 L63.1211,15.9938 L63.1211,15.2578 L65.4181,15.2578 C65.3741,14.7238 65.1991,14.3078 64.8871,14.0068 C64.5741,13.7048 64.1581,13.5538 63.6381,13.5538 C63.1361,13.5538 62.6991,13.6908 62.3311,13.9638 L62.3311,13.1118 C62.7041,12.9228 63.1421,12.8278 63.6481,12.8278 C64.5051,12.8278 65.1621,13.0798 65.6231,13.5768 C66.0841,14.0778 66.3141,14.7808 66.3141,15.6898 C66.3141,16.5338 66.0781,17.2098 65.6061,17.7128 C65.1331,18.2168 64.4981,18.4688 63.7021,18.4688 C63.1501,18.4688 62.6731,18.3478 62.2671,18.1058" id="Fill-1132" fill="#FFFFFF"></path>
        <polygon id="Fill-1134" fill="#FFFFFF" points="71.7085 18.3441 70.4985 18.3441 68.1155 15.7531 68.0945 15.7531 68.0945 18.3441 67.2305 18.3441 67.2305 12.9541 68.0945 12.9541 68.0945 15.4211 68.1155 15.4211 70.3815 12.9541 71.5145 12.9541 69.0105 15.5541"></polygon>
        <path d="M75.7905,18.0941 C75.3765,18.3441 74.8845,18.4691 74.3165,18.4691 C73.5475,18.4691 72.9255,18.2211 72.4535,17.7181 C71.9805,17.2171 71.7455,16.5691 71.7455,15.7741 C71.7455,14.8871 71.9985,14.1731 72.5085,13.6361 C73.0185,13.1001 73.6985,12.8271 74.5475,12.8271 C75.0215,12.8271 75.4395,12.9171 75.8015,13.0901 L75.8015,13.9731 C75.4015,13.6931 74.9745,13.5541 74.5145,13.5541 C73.9645,13.5541 73.5115,13.7511 73.1605,14.1451 C72.8075,14.5391 72.6305,15.0591 72.6305,15.6991 C72.6305,16.3311 72.7965,16.8291 73.1275,17.1961 C73.4595,17.5591 73.9055,17.7421 74.4625,17.7421 C74.9335,17.7421 75.3765,17.5851 75.7905,17.2741 L75.7905,18.0941 Z" id="Fill-1136" fill="#FFFFFF"></path>
        <polygon id="Fill-1138" fill="#FFFFFF" points="80.6885 13.6908 79.0715 13.6908 79.0715 18.3438 78.2075 18.3438 78.2075 13.6908 76.5845 13.6908 76.5845 12.9548 80.6885 12.9548"></polygon>
        <path d="M85.0317,15.1322 C85.0267,14.6332 84.9067,14.2462 84.6717,13.9702 C84.4337,13.6932 84.1047,13.5542 83.6827,13.5542 C83.2757,13.5542 82.9297,13.7002 82.6447,13.9912 C82.3617,14.2802 82.1867,14.6622 82.1187,15.1322 L85.0317,15.1322 Z M85.9157,15.8612 L82.1097,15.8612 C82.1217,16.4612 82.2827,16.9262 82.5927,17.2522 C82.9007,17.5782 83.3277,17.7422 83.8677,17.7422 C84.4757,17.7422 85.0337,17.5412 85.5427,17.1432 L85.5427,17.9532 C85.0677,18.2982 84.4427,18.4692 83.6617,18.4692 C82.9007,18.4692 82.3017,18.2252 81.8657,17.7332 C81.4297,17.2442 81.2127,16.5552 81.2127,15.6682 C81.2127,14.8312 81.4507,14.1472 81.9237,13.6182 C82.4037,13.0922 82.9917,12.8272 83.6977,12.8272 C84.4037,12.8272 84.9507,13.0562 85.3377,13.5142 C85.7227,13.9702 85.9157,14.6002 85.9157,15.4102 L85.9157,15.8612 Z" id="Fill-1140" fill="#FFFFFF"></path>
        <path d="M87.9805,15.389 L87.9805,16.142 C87.9805,16.586 88.1245,16.965 88.4145,17.277 C88.7035,17.588 89.0705,17.743 89.5175,17.743 C90.0415,17.743 90.4515,17.541 90.7495,17.143 C91.0455,16.741 91.1935,16.186 91.1935,15.475 C91.1935,14.874 91.0535,14.405 90.7755,14.064 C90.5005,13.724 90.1245,13.554 89.6495,13.554 C89.1475,13.554 88.7445,13.729 88.4375,14.077 C88.1335,14.427 87.9805,14.863 87.9805,15.389 M88.0005,17.563 L87.9805,17.563 L87.9805,20.825 L87.1165,20.825 L87.1165,12.954 L87.9805,12.954 L87.9805,13.902 L88.0005,13.902 C88.4265,13.186 89.0485,12.827 89.8645,12.827 C90.5605,12.827 91.1055,13.068 91.4935,13.552 C91.8825,14.035 92.0785,14.679 92.0785,15.489 C92.0785,16.391 91.8595,17.113 91.4195,17.657 C90.9815,18.199 90.3815,18.469 89.6175,18.469 C88.9195,18.469 88.3785,18.168 88.0005,17.563" id="Fill-1142" fill="#FFFFFF"></path>
        <polygon id="Fill-1144" fill="#FFFFFF" points="97.5156 18.3441 96.6526 18.3441 96.6526 15.8961 93.9016 15.8961 93.9016 18.3441 93.0386 18.3441 93.0386 12.9541 93.9016 12.9541 93.9016 15.1641 96.6526 15.1641 96.6526 12.9541 97.5156 12.9541"></polygon>
    </g>
</svg>